<?xml version="1.0" encoding="utf-8"?>
<!-- Generator: Adobe Illustrator 26.0.0, SVG Export Plug-In . SVG Version: 6.00 Build 0)  -->
<svg version="1.1" id="Capa_1" xmlns="http://www.w3.org/2000/svg" xmlns:xlink="http://www.w3.org/1999/xlink" x="0px" y="0px"
	 viewBox="0 0 1076 414" style="enable-background:new 0 0 1076 414;" xml:space="preserve">
<style type="text/css">
	.st0{fill:#005EB8;}
</style>
<g>
	<g transform="translate(80.269705, 257.809627)">
		<g>
			<path class="st0" d="M212.2-157h-58.5v-34.4c0-4.9-2.8-7.4-8.4-7.4h-11.7c-5.6,0-8.4,2.5-8.4,7.4v123.1c0,4.9,2.8,7.4,8.4,7.4
				h11.7c5.6,0,8.4-2.5,8.4-7.4v-33.1h58.5V-64c0,27.6-16.4,41.4-49.2,41.4h-47.1c-32.7,0-49.1-13.8-49.1-41.4v-131.8
				c0-27.6,16.4-41.4,49.1-41.4H163c32.8,0,49.2,13.8,49.2,41.4V-157z"/>
		</g>
	</g>
</g>
<g>
	<g transform="translate(124.819663, 257.809627)">
		<g>
			<path class="st0" d="M278.6-237.3h58.5V-64c0,27.6-16.4,41.4-49.1,41.4h-49.5c-32.8,0-49.2-13.8-49.2-41.4v-173.2h58.5v165.5
				c0,4.9,2.8,7.4,8.4,7.4h14c5.6,0,8.4-2.5,8.4-7.4V-237.3z"/>
		</g>
	</g>
</g>
<g>
	<g transform="translate(171.799613, 257.809627)">
		<g>
			<path class="st0" d="M406.9-156.7v-34.8c0-4.9-2.8-7.4-8.4-7.4h-24.1v49.5h24.1C404.1-149.3,406.9-151.8,406.9-156.7z
				 M406.9-68.4v-35.1c0-4.9-2.8-7.4-8.4-7.4h-24.1V-61h24.1C404.1-61,406.9-63.5,406.9-68.4z M316.9-237.3h98.3
				c32.8,0,49.2,13.8,49.2,41.4v27.5c0,19.4-5.4,32-16.1,37.8c6.2,2.7,10.5,6.7,12.7,12.2c2.2,5.5,3.4,12.9,3.4,22.2V-64
				c0,27.6-16.4,41.4-49.2,41.4h-98.3V-237.3z"/>
		</g>
	</g>
</g>
<g>
	<g transform="translate(218.239563, 257.809627)">
		<g>
			<path class="st0" d="M491.2-237.3h49.5c32.8,0,49.2,13.8,49.2,41.4V-64c0,27.6-16.4,41.4-49.2,41.4h-49.5
				C458.4-22.6,442-36.4,442-64v-131.8C442-223.4,458.4-237.3,491.2-237.3z M531.3-71.8v-116.3c0-4.9-2.8-7.4-8.4-7.4h-14
				c-5.6,0-8.4,2.5-8.4,7.4v116.3c0,4.9,2.8,7.4,8.4,7.4h14C528.5-64.4,531.3-66.8,531.3-71.8z"/>
		</g>
	</g>
</g>
<g>
	<g transform="translate(264.679513, 257.809627)">
		<g>
			<path class="st0" d="M722.3-150.3v41.8h-53.5v51.8h-54.5v-51.8h-53.5v-41.8h53.5v-51.8h54.5v51.8H722.3z"/>
		</g>
	</g>
</g>
<g>
	<g transform="translate(42.639845, 298.40963)">
		<g>
			<path class="st0" d="M-36.6,17.4H-7c7.4,0,14,1.5,19.7,4.4c5.8,2.9,10.2,7.1,13.4,12.4c3.2,5.3,4.8,11.4,4.8,18.3
				c0,6.9-1.6,13-4.8,18.3c-3.2,5.3-7.6,9.4-13.4,12.4C7,86.2,0.4,87.7-7,87.7h-29.6V17.4z M-7.6,79c5.7,0,10.7-1.1,15-3.3
				c4.3-2.2,7.7-5.3,10-9.3c2.4-4,3.5-8.6,3.5-13.8s-1.2-9.8-3.5-13.8c-2.3-4-5.7-7.1-10-9.3c-4.3-2.2-9.3-3.3-15-3.3h-19V79H-7.6z"
				/>
		</g>
	</g>
</g>
<g>
	<g transform="translate(66.291849, 298.40963)">
		<g>
			<path class="st0" d="M78.6,79v8.7h-51V17.4h49.6v8.8H37.6v21.5h35.2v8.5H37.6V79H78.6z"/>
		</g>
	</g>
</g>
<g>
	<g transform="translate(85.731855, 298.40963)">
		<g>
			<path class="st0" d="M141.4,17.4l-30.8,70.2h-10L69.7,17.4h10.9l25.3,57.7l25.5-57.7H141.4z"/>
		</g>
	</g>
</g>
<g>
	<g transform="translate(106.305853, 298.40963)">
		<g>
			<path class="st0" d="M156.7,88.5c-5.3,0-10.4-0.8-15.3-2.4c-4.9-1.7-8.8-3.8-11.6-6.4l3.7-7.8c2.7,2.4,6.1,4.4,10.3,5.9
				c4.2,1.5,8.5,2.3,12.9,2.3c5.8,0,10.1-1,13-3c2.9-2,4.4-4.6,4.4-7.9c0-2.4-0.8-4.4-2.4-5.9c-1.6-1.5-3.5-2.6-5.8-3.4
				c-2.3-0.8-5.6-1.7-9.8-2.7c-5.3-1.3-9.6-2.6-12.8-3.8c-3.3-1.3-6-3.2-8.4-5.9c-2.3-2.6-3.4-6.2-3.4-10.7c0-3.7,1-7.1,3-10.1
				c2-3,5-5.4,9-7.2c4-1.8,9-2.7,14.9-2.7c4.1,0,8.2,0.6,12.2,1.6c4,1,7.5,2.6,10.3,4.6l-3.3,8c-2.9-1.9-6.1-3.3-9.5-4.2
				c-3.3-1-6.6-1.5-9.8-1.5c-5.7,0-10,1-12.8,3.1c-2.8,2.1-4.2,4.8-4.2,8c0,2.4,0.8,4.4,2.4,5.9c1.6,1.5,3.6,2.7,6,3.5
				c2.4,0.8,5.6,1.7,9.7,2.7c5.3,1.2,9.5,2.5,12.7,3.8c3.2,1.3,6,3.2,8.2,5.9c2.3,2.6,3.5,6.1,3.5,10.5c0,3.7-1,7.1-3,10.1
				c-2,3-5,5.4-9.1,7.2C167.7,87.6,162.7,88.5,156.7,88.5z"/>
		</g>
	</g>
</g>
<g>
	<g transform="translate(124.422857, 298.40963)">
	</g>
</g>
<g>
	<g transform="translate(133.035863, 298.40963)">
		<g>
			<path class="st0" d="M257.5,52.1h9.6v27.4c-3.5,2.9-7.5,5.1-12.1,6.6c-4.6,1.5-9.4,2.3-14.5,2.3c-7.1,0-13.5-1.5-19.2-4.6
				c-5.7-3.1-10.1-7.4-13.4-12.9c-3.3-5.5-4.9-11.6-4.9-18.4c0-6.8,1.6-12.9,4.9-18.4c3.3-5.5,7.7-9.8,13.4-12.8
				c5.7-3.1,12.2-4.6,19.3-4.6c5.6,0,10.7,0.9,15.3,2.8c4.6,1.8,8.5,4.5,11.7,8l-6.2,6.2c-5.7-5.4-12.5-8.1-20.4-8.1
				c-5.3,0-10.1,1.2-14.4,3.5c-4.3,2.3-7.6,5.5-10,9.6c-2.4,4.1-3.6,8.7-3.6,13.9c0,5.1,1.2,9.7,3.6,13.8c2.4,4.1,5.7,7.3,10,9.7
				c4.3,2.3,9,3.5,14.3,3.5c6.3,0,11.8-1.5,16.5-4.5V52.1z"/>
		</g>
	</g>
</g>
<g>
	<g transform="translate(155.229869, 298.40963)">
		<g>
			<path class="st0" d="M320.1,79v8.7h-51V17.4h49.6v8.8h-39.5v21.5h35.2v8.5h-35.2V79H320.1z"/>
		</g>
	</g>
</g>
<g>
	<g transform="translate(174.669877, 298.40963)">
		<g>
			<path class="st0" d="M382.3,17.4v70.2h-8.2l-42.1-52.4v52.4h-10V17.4h8.2l42.1,52.4V17.4H382.3z"/>
		</g>
	</g>
</g>
<g>
	<g transform="translate(197.943885, 298.40963)">
		<g>
			<path class="st0" d="M436,79v8.7h-51V17.4h49.6v8.8h-39.5v21.5h35.2v8.5h-35.2V79H436z"/>
		</g>
	</g>
</g>
<g>
	<g transform="translate(217.383894, 298.40963)">
		<g>
			<path class="st0" d="M484.8,87.7l-15.2-21.6c-1.9,0.2-3.3,0.2-4.4,0.2h-17.4v21.4h-10V17.4h27.4c9.1,0,16.3,2.2,21.5,6.6
				c5.2,4.3,7.8,10.3,7.8,17.9c0,5.4-1.3,10-4,13.9c-2.7,3.8-6.5,6.6-11.4,8.3l16.6,23.6H484.8z M465,57.8c6.3,0,11.2-1.4,14.5-4.1
				c3.4-2.7,5.1-6.6,5.1-11.7c0-5.1-1.7-9-5.1-11.7c-3.3-2.7-8.2-4.1-14.5-4.1h-17.1v31.6H465z"/>
		</g>
	</g>
</g>
<g>
	<g transform="translate(238.362892, 298.40963)">
		<g>
			<path class="st0" d="M539.6,70.1h-37.3l-7.7,17.5h-10.3L516,17.4h9.9l31.9,70.2h-10.6L539.6,70.1z M536.1,62.1l-15.2-34.4
				l-15.2,34.4H536.1z"/>
		</g>
	</g>
</g>
<g>
	<g transform="translate(259.476897, 298.40963)">
		<g>
			<path class="st0" d="M566.1,26.2h-24.1v-8.8h58.1v8.8h-24v61.5h-9.9V26.2z"/>
		</g>
	</g>
</g>
<g>
	<g transform="translate(276.675901, 298.40963)">
		<g>
			<path class="st0" d="M598.9,17.4h10v70.2h-10V17.4z"/>
		</g>
	</g>
</g>
<g>
	<g transform="translate(286.395894, 298.40963)">
		<g>
			<path class="st0" d="M656.9,88.5c-7.1,0-13.5-1.5-19.2-4.6c-5.7-3.1-10.1-7.4-13.4-12.9c-3.3-5.5-4.9-11.6-4.9-18.4
				c0-6.7,1.6-12.8,4.9-18.3c3.3-5.5,7.7-9.8,13.4-12.9c5.7-3.1,12.1-4.6,19.2-4.6c7,0,13.4,1.6,19.1,4.6
				c5.7,3.1,10.1,7.4,13.4,12.8c3.2,5.5,4.8,11.6,4.8,18.4c0,6.8-1.6,12.9-4.8,18.4c-3.2,5.5-7.7,9.8-13.4,12.9
				C670.4,86.9,664,88.5,656.9,88.5z M656.9,79.5c5.2,0,9.8-1.2,13.9-3.5c4.1-2.4,7.3-5.6,9.7-9.7c2.4-4.1,3.6-8.7,3.6-13.8
				c0-5.1-1.2-9.7-3.6-13.8c-2.4-4.1-5.6-7.4-9.7-9.7c-4.1-2.4-8.8-3.5-13.9-3.5c-5.2,0-9.8,1.2-14,3.5c-4.2,2.3-7.5,5.6-9.8,9.7
				c-2.4,4.1-3.5,8.7-3.5,13.8c0,5.1,1.2,9.7,3.5,13.8c2.4,4.1,5.6,7.3,9.8,9.7C647.1,78.4,651.8,79.5,656.9,79.5z"/>
		</g>
	</g>
</g>
<g>
	<g transform="translate(310.425899, 298.40963)">
		<g>
			<path class="st0" d="M750.9,17.4v70.2h-8.2l-42.1-52.4v52.4h-10V17.4h8.2l42.1,52.4V17.4H750.9z"/>
		</g>
	</g>
</g>
</svg>
